<svg width="210" height="40" viewBox="0 0 210 40" fill="none" xmlns="http://www.w3.org/2000/svg">
<g clip-path="url(#clip0_356_10463)">
<path d="M49.0375 -8.73664e-05H40.0272C39.5567 -8.73664e-05 39.0845 0.180891 38.7252 0.542848C38.3658 0.904806 38.1862 1.38057 38.1862 1.85448V38.1491C38.1862 38.623 38.3658 39.0969 38.7252 39.4588C39.0845 39.8208 39.5549 40.0018 40.0272 40.0018H49.0375C49.508 40.0018 49.9784 39.8208 50.3395 39.4588C50.6989 39.0969 50.8785 38.623 50.8785 38.1491V1.85261C50.8785 1.37871 50.6989 0.904806 50.3395 0.540983C49.9802 0.180891 49.5098 -0.00195312 49.0375 -0.00195312V-8.73664e-05ZM138.082 -8.73664e-05H128.831C128.486 -8.73664e-05 128.134 0.0969321 127.823 0.302166C127.512 0.507399 127.282 0.790994 127.145 1.11004L118.672 20.6035L110.199 1.11004C110.06 0.790994 109.832 0.505533 109.521 0.302166C109.208 0.0969321 108.858 -8.73664e-05 108.513 -8.73664e-05H98.8807C98.4103 -8.73664e-05 97.9399 0.180891 97.5806 0.542848C97.2213 0.904806 97.0416 1.38057 97.0416 1.85448V38.1491C97.0416 38.623 97.2213 39.0969 97.5806 39.4588C97.9399 39.8208 98.4103 40.0018 98.8807 40.0018H105.626C106.096 40.0018 106.569 39.8208 106.928 39.4588C107.287 39.0969 107.467 38.623 107.467 38.1491V19.734L115.248 36.6845C115.39 36.9942 115.618 37.2703 115.927 37.4681C116.235 37.6658 116.579 37.761 116.918 37.761H120.43C120.77 37.761 121.113 37.6658 121.421 37.4681C121.728 37.2703 121.958 36.996 122.1 36.6845L129.499 20.568V38.1509C129.499 38.6248 129.679 39.0987 130.038 39.4607C130.398 39.8227 130.868 40.0036 131.338 40.0036H138.084C138.554 40.0036 139.025 39.8227 139.384 39.4607C139.743 39.0987 139.923 38.6248 139.923 38.1509V1.85261C139.923 1.37871 139.743 0.904806 139.384 0.540983C139.023 0.180891 138.552 -8.73664e-05 138.082 -8.73664e-05ZM21.1415 -8.73664e-05H1.83912C1.36869 -8.73664e-05 0.898259 0.180891 0.538955 0.542848C0.179652 0.904806 0 1.37871 0 1.85261V38.1472C0 38.6211 0.179652 39.095 0.538955 39.457C0.898259 39.8189 1.36869 39.9999 1.83912 39.9999H10.0383C10.5087 39.9999 10.9791 39.8189 11.3403 39.457C11.6996 39.095 11.8792 38.6211 11.8792 38.1472V29.1617H21.1415C30.2519 29.1617 34.5024 22.4655 34.5024 14.5808C34.5024 6.69612 29.9833 -8.73664e-05 21.1415 -8.73664e-05ZM79.9395 21.6875C79.6839 21.3815 79.0227 20.4971 79.0227 20.4971C79.0227 20.4971 79.6209 19.7284 79.8525 19.4038L91.6539 2.94781C92.0447 2.40114 92.1262 1.66044 91.8021 1.01862C91.4761 0.376796 90.8316 0.00924143 90.163 0.00924143H81.5508C81.273 0.00924143 80.9915 0.0726772 80.7248 0.207012C80.4599 0.341346 80.2414 0.531654 80.0747 0.755545L69.516 15.0286V1.85261C69.516 1.37871 69.3363 0.904806 68.977 0.540983C68.6177 0.180891 68.1473 -0.00195312 67.675 -0.00195312H60.2871C59.8166 -0.00195312 59.3462 0.179025 58.9869 0.540983C58.6276 0.90294 58.448 1.37871 58.448 1.85261V38.1472C58.448 38.6211 58.6276 39.095 58.9869 39.457C59.3481 39.8189 59.8166 39.9999 60.2871 39.9999H67.675C68.1454 39.9999 68.6177 39.8189 68.977 39.457C69.3363 39.095 69.516 38.6211 69.516 38.1472V25.906L80.9174 39.3506C81.0841 39.5484 81.2971 39.7145 81.5453 39.832C81.7953 39.9477 82.0583 40.0018 82.3157 40.0018H91.3557C92.0503 40.0018 92.7152 39.6044 93.0263 38.929C93.3374 38.2536 93.2097 37.4849 92.7615 36.9513L79.9395 21.6894V21.6875ZM157.869 -8.73664e-05H148.859C148.387 -8.73664e-05 147.916 0.180891 147.557 0.542848C147.198 0.904806 147.018 1.38057 147.018 1.85448V38.1491C147.018 38.623 147.198 39.0969 147.557 39.4588C147.916 39.8208 148.389 40.0018 148.859 40.0018H157.869C158.34 40.0018 158.81 39.8208 159.172 39.4588C159.531 39.0969 159.71 38.623 159.71 38.1491V1.85261C159.71 1.37871 159.531 0.904806 159.172 0.540983C158.812 0.180891 158.34 -0.00195312 157.869 -0.00195312V-8.73664e-05ZM200.141 -8.73664e-05H193.396C192.926 -8.73664e-05 192.455 0.180891 192.094 0.542848C191.735 0.904806 191.555 1.38057 191.555 1.85448V22.1092L179.12 0.910403C178.963 0.641734 178.737 0.408514 178.448 0.242461C178.159 0.0782745 177.846 -8.73664e-05 177.537 -8.73664e-05H168.649C168.178 -8.73664e-05 167.708 0.180891 167.347 0.542848C166.989 0.904806 166.808 1.38057 166.808 1.85448V38.1491C166.808 38.623 166.987 39.0969 167.347 39.4588C167.708 39.8208 168.178 40.0018 168.649 40.0018H175.394C175.864 40.0018 176.335 39.8208 176.696 39.4588C177.053 39.0969 177.235 38.623 177.235 38.1491V19.471L189.062 39.1099C189.22 39.3749 189.446 39.6006 189.733 39.763C190.018 39.9253 190.329 39.9999 190.635 39.9999H200.143C200.614 39.9999 201.086 39.8189 201.445 39.457C201.803 39.095 201.984 38.6211 201.984 38.1472V1.85261C201.984 1.37871 201.803 0.904806 201.445 0.540983C201.086 0.180891 200.614 -0.00195312 200.143 -0.00195312L200.141 -8.73664e-05ZM209.052 -8.73664e-05L208.483 2.4963L207.909 -8.73664e-05H206.951V3.17543H207.565V1.02795C207.565 0.966376 207.565 0.878685 207.563 0.768605C207.563 0.65666 207.561 0.572701 207.561 0.51113L208.153 3.17543H208.794L209.391 0.51113C209.391 0.570835 209.391 0.65666 209.389 0.768605C209.387 0.880551 209.387 0.966376 209.387 1.02795V3.17543H210V-8.73664e-05H209.052ZM203.805 0.561506H204.753V3.17357H205.416V0.561506H206.359V-8.73664e-05H203.805V0.561506Z" fill="#00B400"/>
<path fill-rule="evenodd" clip-rule="evenodd" d="M22.2547 20.014C22.277 21.4376 21.2472 22.6224 19.9544 23.1485C18.6487 23.6802 17.0745 23.5403 16.1058 22.4731C15.528 21.8369 15.2539 21.0346 15.2187 20.0905C14.7371 20.9003 14.113 21.473 13.3036 21.751C11.9664 22.2119 10.5311 21.5925 9.6328 20.5159C8.72898 19.43 8.37153 17.8777 9.08088 16.6202C9.50315 15.8702 10.1755 15.359 11.0552 15.0343C10.1421 14.8235 9.40869 14.4037 8.89567 13.7134C8.04741 12.5752 8.18817 11.008 8.92715 9.81578C9.67354 8.61237 11.0293 7.7933 12.435 8.0825C13.2721 8.25601 13.963 8.74297 14.5427 9.48368C14.4593 8.54334 14.6297 7.71121 15.1224 7.00595C15.9354 5.84172 17.4578 5.49282 18.8117 5.83239C20.1767 6.17569 21.3713 7.22051 21.5306 8.65715C21.6269 9.51353 21.3805 10.3251 20.8601 11.1106C21.7213 10.7393 22.5603 10.646 23.3771 10.8998C24.7273 11.3196 25.5274 12.6704 25.6255 14.0716C25.7237 15.4858 25.1051 16.9523 23.7994 17.5512C23.0215 17.9076 22.1769 17.9225 21.2768 17.665C21.8936 18.3759 22.2399 19.1502 22.2529 20.0122L22.2547 20.014Z" fill="white"/>
<path fill-rule="evenodd" clip-rule="evenodd" d="M19.069 15.344C19.419 13.9615 18.593 12.5565 17.2206 12.202C15.8501 11.8494 14.4536 12.6834 14.1017 14.0641C13.7517 15.4466 14.5796 16.8515 15.9501 17.206C17.3225 17.5586 18.7171 16.7265 19.069 15.344Z" fill="#FFB400"/>
</g>
<defs>
<clipPath id="clip0_356_10463">
<rect width="210" height="40" fill="white"/>
</clipPath>
</defs>
</svg>
