<svg xmlns="http://www.w3.org/2000/svg" width="2560" height="788" viewBox="0 0 2560 788" version="1.1"><path d="M 755 134 L 755 197 807 197 L 859 197 859 474 L 859 751 929 751 L 999 751 999 474 L 999 197 1049.500 197 L 1100 197 1100 134 L 1100 71 927.500 71 L 755 71 755 134" stroke="none" fill="#ec040c" fill-rule="evenodd"/><path d="M 2317 58.034 C 2261.246 60.608, 2222.999 73.826, 2197.849 99.213 C 2177.318 119.938, 2165.779 147.439, 2160.366 188.547 C 2157.947 206.911, 2157.933 252.614, 2160.340 270 C 2168.118 326.187, 2189.420 368.988, 2228.955 407.870 C 2242.410 421.103, 2256.738 433.091, 2285.500 455.182 C 2332.750 491.472, 2348.657 507.035, 2361.496 529.539 C 2372.128 548.174, 2376.383 564.848, 2376.287 587.500 C 2376.196 609.105, 2372.801 620.836, 2363.820 630.579 C 2357.605 637.322, 2350.791 640.185, 2339.559 640.773 C 2318.630 641.867, 2306.533 633.579, 2300.663 614.123 C 2298.889 608.246, 2298.599 603.559, 2298.082 572.500 L 2297.500 537.500 2227.635 537.243 L 2157.771 536.986 2158.286 584.743 C 2158.682 621.486, 2159.180 635.152, 2160.445 644 C 2166.023 683.011, 2176.356 707.403, 2195.216 726.076 C 2216.034 746.689, 2244.743 757.749, 2290 762.589 C 2308.588 764.578, 2356.067 764.863, 2375 763.101 C 2423.138 758.620, 2453.579 747.352, 2475.131 726.036 C 2497.070 704.339, 2508.893 674.194, 2514.172 626.500 C 2515.954 610.396, 2515.972 552.765, 2514.199 540.500 C 2508.542 501.381, 2497.455 470.957, 2478.487 442.500 C 2468.447 427.437, 2460.262 417.498, 2446.871 404.111 C 2431.375 388.618, 2415.990 375.922, 2379.500 348.517 C 2346.549 323.768, 2331.770 311.296, 2322.631 300.523 C 2304.506 279.159, 2297.990 262.324, 2298.042 237 C 2298.102 208.130, 2304.136 193.335, 2318.500 186.837 C 2322.522 185.017, 2325.749 184.502, 2335 184.198 C 2345.038 183.869, 2347.256 184.106, 2352.449 186.057 C 2362.790 189.943, 2369.784 198.196, 2373.588 211 C 2375.908 218.806, 2376.983 232.791, 2376.992 255.250 L 2377 277 2444.114 277 L 2511.228 277 2510.701 235.750 C 2510.412 213.063, 2509.675 190.900, 2509.064 186.500 C 2505.797 162.988, 2500.307 143.514, 2492.694 128.431 C 2473.217 89.846, 2439.214 68.465, 2384.702 60.523 C 2375.777 59.223, 2336.971 56.687, 2333.500 57.177 C 2332.950 57.255, 2325.525 57.640, 2317 58.034 M 1225 411 L 1225 751 1368 751 L 1511 751 1511 689.500 L 1511 628 1437.500 628 L 1364 628 1364 349.500 L 1364 71 1294.500 71 L 1225 71 1225 411 M 1646 344.800 C 1646 529.998, 1646.346 622.953, 1647.069 632.050 C 1653.572 713.907, 1688.412 751.056, 1768.453 761.483 C 1798.801 765.436, 1851.248 765.429, 1881.656 761.469 C 1949.876 752.582, 1984.536 724.502, 1997.887 667.304 C 2003.812 641.922, 2003.402 663.889, 2003.734 354.250 L 2004.037 71 1934.519 71 L 1865 71 1864.991 329.750 C 1864.986 492.908, 1864.615 592.749, 1863.988 600 C 1861.181 632.449, 1851.310 642.027, 1822.026 640.714 C 1808.314 640.099, 1804.317 638.911, 1798.382 633.687 C 1790.097 626.395, 1787.300 617.358, 1785.973 593.610 C 1785.478 584.750, 1785.056 463.538, 1785.036 324.250 L 1785 71 1715.500 71 L 1646 71 1646 344.800 M 247.500 399.132 C 130.350 578.484, 31.026 730.579, 26.779 737.119 L 19.058 749.011 102.666 748.756 L 186.274 748.500 334.387 522.215 L 482.500 295.931 482.752 522.465 L 483.004 749 554.002 749 L 625 749 625 411 L 625 73 542.750 73.018 L 460.500 73.036 247.500 399.132" stroke="none" fill="#0c5cac" fill-rule="evenodd"/></svg>